<svg version="1.2" xmlns="http://www.w3.org/2000/svg" viewBox="0 0 1024 1024" width="1024" height="1024">
	<title>NexTech Logo</title>
	<defs>
		<linearGradient id="g1" x2="1" gradientUnits="userSpaceOnUse" gradientTransform="matrix(-173.662,289.021,-293.834,-176.553,386.409,202.571)">
			<stop offset="0" stop-color="#1473ff"/>
			<stop offset="1" stop-color="#7300af"/>
		</linearGradient>
		<linearGradient id="g2" x2="1" gradientUnits="userSpaceOnUse" gradientTransform="matrix(-133.955,222.939,-548.611,-329.639,411.093,235.172)">
			<stop offset="0" stop-color="#1473ff"/>
			<stop offset="1" stop-color="#7300af"/>
		</linearGradient>
	</defs>
	<style>
		tspan { white-space:pre } 
		.s0 { fill: url(#g1) } 
		.s1 { fill: url(#g2) } 
		.t2 { font-size: 220px;fill: #000000;font-weight: 500;font-family: "Metropolis" } 
		.t3 { font-size: 93px;fill: #000000;font-family: "Metropolis" } 
	</style>
	<g id="image2vector (1)">
		<path id="Path 3" fill-rule="evenodd" class="s0" d="m365.4 114c1.6 0 6.6 0.2 11.1 0.4 4.5 0.3 12.2 1.2 17.2 2 5.1 0.9 11.8 2.2 15.1 3 3.2 0.9 7.7 2 9.8 2.7 2.2 0.6 6.4 1.9 9.4 2.9 3 1 9.1 3.3 13.6 5.1 4.4 1.7 9.1 3.6 10.3 4.2 1.2 0.5 3.2 1.4 4.4 1.9 1.3 0.6 5.5 2.6 9.4 4.6 3.9 2 8.5 4.3 10.1 5.2 1.6 0.8 5.2 2.8 7.8 4.3 2.7 1.6 5.8 3.3 6.9 3.9 1.2 0.7 2.1 1.4 2.2 1.7 0.1 0.2 0.3 0.4 0.6 0.4 0.3 0 3.6 2.1 7.3 4.5 3.7 2.5 9.9 6.9 13.7 9.7 3.8 2.9 8.3 6.3 10 7.7 1.8 1.4 5.5 4.1 8.2 6.1 2.7 2 5.3 3.6 5.7 3.6 0.4 0 2.9-2 5.6-4.5 2.8-2.5 10-9.5 16.1-15.5 6.1-6 13.8-13.3 17.2-16.3 3.4-3 8.6-7.3 11.6-9.6 3-2.3 7.1-5.3 9.1-6.6 2.1-1.3 4.5-2.9 5.4-3.5 1-0.5 2.2-1.3 2.8-1.6 0.5-0.3 2.5-1.4 4.4-2.3 1.9-1 3.7-1.8 4.1-1.7 0.3 0 0.6-0.2 0.6-0.4 0-0.2 0.9-0.7 2.1-1.1 1.1-0.3 2.5-0.9 3-1.3 0.6-0.4 1.4-0.7 1.8-0.7 0.4 0 1.3-0.3 1.9-0.7 0.7-0.3 3.8-1.2 6.9-2 3.2-0.7 7.9-1.6 10.6-2 2.8-0.3 8-0.6 11.6-0.6 3.7-0.1 9.9 0.3 13.8 0.7 4 0.4 9 1 11.1 1.5 2.2 0.4 6.5 1.4 9.6 2.2 3.2 0.8 5.9 1.7 6.2 1.9 0.3 0.2 1.2 0.5 2 0.7 0.8 0.2 3.8 1.4 6.6 2.6 2.9 1.2 7 3.2 9.1 4.5 2.2 1.2 5.5 3.4 7.4 4.8 1.9 1.4 5.3 4.1 7.6 6.2 2.2 2 5.6 5.4 7.4 7.6 1.8 2.1 4.7 6 6.4 8.6 1.7 2.6 4.3 7.1 5.7 10.1 1.5 3 3.5 8.1 4.6 11.3 1.1 3.3 2.5 7.7 3.1 9.8 0.5 2.1 1.3 5.9 1.8 8.6 0.4 2.6 0.8 4.9 0.9 5 0.1 0.2 0.5 3.7 1 7.9 0.4 4.3 1 16.3 1.2 27.4 0.3 10.8 0.5 55 0.5 98.1 0 43.1-0.2 89.6-0.5 103.3-0.3 13.6-0.7 30.3-1 36.9-0.2 6.7-0.7 13.1-1 14.3-0.3 1.2-0.9 4.3-1.4 6.9-0.5 2.6-1.3 6.1-1.7 7.9-0.5 1.8-1 3.5-1.1 4-0.2 0.4-0.4 0.9-0.4 1.2-0.1 0.3-0.4 1.4-0.8 2.5-0.3 1-1.1 3.4-1.8 5.1-0.6 1.8-1.4 3.7-1.6 4.2-0.2 0.6-1.5 3.2-2.7 5.9-1.3 2.7-2.9 5.7-3.5 6.7-0.6 0.9-2.4 3.7-4 6.1-1.6 2.5-4.8 6.6-7.1 9.2-2.3 2.5-6 6.2-8.1 8-2.2 1.9-6.1 4.8-8.6 6.5-2.6 1.7-6.7 4.1-9.2 5.3-2.4 1.2-7.4 3.2-11.1 4.5-3.6 1.2-8.2 2.4-10.1 2.7-1.9 0.3-4.2 0.8-5.1 1.1-1 0.3-6.9 0.7-13.8 0.8-6.9 0.1-14.3 0-17.3-0.3-2.8-0.3-7.6-0.9-10.6-1.5-3-0.5-7.6-1.6-10.3-2.3-2.7-0.7-5.9-1.5-6.9-1.7-1.1-0.3-4.2-1.3-6.9-2.2-2.8-0.9-6.4-2.2-8.2-2.8-1.7-0.7-6.4-2.6-10.3-4.3-4-1.7-9.3-4.2-12-5.5-2.6-1.3-7.9-4.2-11.8-6.4-3.9-2.2-7.5-4.3-8-4.6-0.6-0.3-1.7-1-2.5-1.5-0.8-0.5-2.4-1.5-3.4-2.2-1.1-0.7-2.1-1.4-2.1-1.6-0.1-0.2-0.4-0.4-0.6-0.4-0.3 0-2-1-3.9-2.3-1.8-1.3-6.3-4.5-9.9-7.2-3.7-2.6-8.5-6.2-10.7-7.9-2.2-1.7-6.4-5.1-9.3-7.5-2.9-2.4-7.9-6.6-10.9-9.2-3.1-2.7-6.3-5.2-7.2-5.6-1-0.5-2.1-0.7-2.9-0.5-0.6 0.2-2.2 1.2-3.4 2.1-1.2 1-5.9 5.3-10.4 9.5-4.4 4.1-12.8 12-18.5 17.5-5.6 5.4-12.5 11.9-15.2 14.3-2.7 2.4-7.8 6.7-11.4 9.4-3.5 2.8-8.6 6.4-11.3 8.2-2.7 1.8-6.7 4.1-8.9 5.2-2.1 1.1-5.6 2.6-7.6 3.4-2.1 0.8-4.5 1.7-5.4 1.9-1 0.2-2 0.5-2.3 0.7-0.2 0.2-2.9 1-5.9 1.7-3 0.7-6.6 1.5-8.1 1.8-1.5 0.2-3.8 0.7-5.2 1.1q-2.4 0.6-18.7 0.6c-13.7 0-16.8-0.1-19.5-0.8-1.8-0.5-4.6-1.1-6.4-1.4-1.8-0.3-3.4-0.8-3.7-1-0.3-0.2-1.7-0.6-3.2-1-1.5-0.3-2.9-0.8-3.2-1-0.3-0.2-1.4-0.6-2.5-1-1.1-0.3-4.2-1.6-6.9-2.8-2.7-1.2-6.9-3.5-9.3-5-2.5-1.5-6.7-4.5-9.4-6.7-2.7-2.1-6.6-5.6-8.5-7.6-2-2.1-5.3-5.8-7.2-8.4-2-2.6-4.8-6.8-6.3-9.4-1.5-2.6-3.4-6.1-4.2-7.9-0.9-1.7-2.1-4.7-2.8-6.5-0.7-1.8-1.3-3.7-1.3-4.1 0-0.4-0.2-0.8-0.5-1-0.3-0.1-0.8-1.4-1.1-2.8-0.3-1.4-0.7-2.8-0.9-3.1-0.2-0.2-1-3.3-1.7-6.7-0.9-4.5-1.4-9.3-1.8-16.8-0.4-7-0.6-54.8-1-274.2l1.3-6.2c0.7-3.4 1.7-7.9 2.2-10.1 0.5-2.1 1.2-4.9 1.5-6.1 0.3-1.3 1.6-5.2 2.8-8.9 1.2-3.7 3.6-9.3 5.1-12.6 1.6-3.2 4-7.6 5.2-9.6 1.3-2 4.2-5.9 6.4-8.6 2.3-2.7 5.5-6.3 7.2-8 1.7-1.6 4.6-4.1 6.3-5.6 1.8-1.4 4.7-3.5 6.4-4.7 1.8-1.1 5.4-3.1 7.9-4.4 2.6-1.4 6.2-3.1 7.9-3.8 1.8-0.7 4.6-1.8 6.2-2.3 1.6-0.6 5.2-1.6 7.9-2.3 2.7-0.6 6.9-1.5 9.3-2 2.5-0.4 6.6-1 9.2-1.2 2.5-0.2 6-0.4 7.6-0.4zm-21 26.5c-2 0.5-5.6 1.7-8.1 2.7-2.4 0.9-6.3 2.8-8.6 4.1-2.3 1.3-5.4 3.1-6.9 4.2-1.5 1-4.2 3.1-5.9 4.7-1.8 1.6-4.7 4.4-6.5 6.4-1.7 2-4.4 5.5-6 7.9-1.6 2.4-3.9 6.3-5 8.7-1.2 2.5-2.7 6-3.5 7.9-0.7 1.9-1.8 5.6-2.4 8.2-1 3.6-1.3 7-1.7 15.2-0.3 5.9-0.8 17.5-1 25.9-0.3 8.4-0.9 37-1.3 63.6-0.5 26.9-0.8 75.6-0.9 109.7 0 59.5 0 61.6 1 69.7 0.6 4.7 1.6 11 2.1 14.1 0.6 3.1 1.9 8.3 2.8 11.6 1 3.2 2.3 7.2 3 8.9 0.7 1.6 1.7 3.9 2.3 5.1 0.6 1.2 2 3.9 3.2 5.9 1.2 2.1 3.4 5.3 4.8 7.2 1.4 1.9 4.1 4.9 5.9 6.6 1.9 1.8 5 4.3 6.9 5.5 1.9 1.3 5.4 3.3 7.9 4.6 2.4 1.2 5.7 2.7 7.3 3.3 1.7 0.6 5.1 1.6 7.7 2.2 2.6 0.7 7.4 1.6 10.8 2 3.4 0.4 9.6 0.7 13.8 0.7 4.2 0 10.4-0.3 13.7-0.8 3.3-0.4 8.5-1.4 11.6-2.2 3-0.8 7.7-2.4 10.2-3.4 2.6-1 6.3-2.7 8.2-3.7 1.9-1.1 5.6-3.3 8.3-5.1 2.8-1.8 6.7-4.6 8.9-6.2 2.2-1.7 5.7-4.6 7.9-6.4 2.2-1.9 5.7-5.1 7.9-7.2 2.2-2.1 8.5-8.1 14-13.4 5.6-5.3 13.9-13.1 18.4-17.2l8.3-7.6c-12.8-12.9-17.6-17.2-18.8-18-1.2-0.9-2.6-1.5-3.2-1.5-0.5 0-2.2 0.8-3.7 1.6-1.6 1-7.5 6.3-15 13.7-6.8 6.6-15.9 15.3-20.2 19.2-4.3 3.9-10 8.9-12.8 11.1-2.7 2.1-6.3 4.7-7.9 5.8-1.7 1-4.6 2.7-6.7 3.7-2 0.9-4.9 2.1-6.4 2.6-1.5 0.5-5 1.5-7.9 2.2-4.1 1-6.8 1.4-13 1.6-6.4 0.2-8.7 0.1-12.1-0.6-2.3-0.5-6-1.5-8.1-2.3-2.2-0.8-5.9-2.6-8.2-4-2.5-1.5-5.7-4.1-7.8-6.3-2-2-4.6-5.1-5.7-6.9-1.2-1.7-2.7-4.3-3.4-5.7-0.6-1.3-1.9-4.4-2.7-6.9-0.8-2.4-1.6-5.5-1.8-6.9-0.1-1.3-0.5-10.2-0.8-19.7-0.2-9.5-0.7-43-0.9-74.4-0.3-31.5-0.4-66.3-0.2-77.5 0.4-18.2 0.5-20.4 1.2-21.2 0.8-0.8 1-0.7 4.2 2.1 1.8 1.6 6.2 5.7 9.8 9.1 3.5 3.3 14.6 14.2 24.6 24.1 10.1 9.9 25.8 25.5 35 34.6 9.2 9.1 22.1 21.7 28.6 28.1 6.5 6.3 23.3 22.6 37.2 36.2 14 13.6 30.8 29.8 37.3 36 6.5 6.2 13.1 12.5 14.7 14 1.7 1.5 4.9 4.5 7.2 6.7 2.3 2.2 5.1 4.7 6.2 5.7 1.1 0.9 5 4.2 8.6 7.4 3.7 3.1 9.7 8.1 13.4 10.9 3.7 2.9 10.2 7.6 14.3 10.4 4.1 2.8 11 7.2 15.2 9.7 4.2 2.5 11.8 6.7 17 9.3 5.1 2.7 12 5.9 15.3 7.2 3.2 1.3 8.5 3.3 11.8 4.3 3.2 1.1 7.6 2.4 9.6 2.9 2 0.5 6.4 1.5 9.7 2.2 3.4 0.7 8.7 1.4 11.9 1.7 3.1 0.3 8.2 0.5 11.2 0.5 3 0 7.5-0.2 10.1-0.5 2.6-0.2 6.7-0.9 9.1-1.5 2.4-0.6 6-1.6 7.9-2.3 1.9-0.6 4.4-1.6 5.5-2.1 1.2-0.6 2.2-1 2.4-1 0.1 0 1.8-0.9 3.8-2.1 2-1.1 5.2-3.3 7.3-4.8 2-1.6 5.1-4.4 6.9-6.2 1.8-1.9 4.5-5.1 6-7.1 1.5-2 3.6-5.4 4.7-7.4 1.1-2 2.6-5.1 3.3-6.9 0.8-1.8 1.7-4.7 2.2-6.4 0.5-1.8 1.5-5.2 2.2-7.7 0.7-2.4 1.6-6.9 2-10.1 0.4-3.1 1-9.3 1.3-13.8 0.4-5.3 0.6-39.6 0.7-100.8 0.1-50.9 0-105.1-0.3-120.2-0.2-15.2-0.6-31.3-0.9-35.8-0.3-4.5-0.8-10.2-1.1-12.8-0.3-2.6-0.9-6.7-1.5-9.1-0.5-2.5-1.5-6-2.2-7.9-0.7-1.9-2.2-5.5-3.3-7.9-1.2-2.4-3.3-6.3-4.8-8.6-1.5-2.3-4.3-5.8-6.1-7.8-1.9-2-5.5-5.2-7.9-7-2.4-1.8-6.1-4.3-8.1-5.4-2.1-1.1-4.7-2.5-6-3.1-1.2-0.5-3.8-1.6-5.9-2.3-2-0.8-5.6-1.9-7.9-2.4-2.3-0.6-6.1-1.4-8.6-1.9-3.4-0.7-6.8-0.9-15-0.9-7.7 0-12 0.3-15.5 0.9-2.8 0.4-6.6 1.3-8.7 1.8-2 0.6-5.6 1.7-7.9 2.5-2.3 0.8-5.9 2.4-8.1 3.5-2.2 1-5.8 3.1-8.1 4.5-2.6 1.6-6.9 5.1-11.6 9.5-4.1 3.8-14.7 14.3-23.5 23.2-8.9 8.9-16.2 16.6-16.2 17 0 0.5 4.3 5.3 9.6 10.6l9.6 9.8c29.2-29.1 39.7-39.2 42.2-41.2 2.4-2.1 5.7-4.6 7.4-5.7 1.6-1.1 4.3-2.7 5.9-3.5 1.6-0.9 5.1-2.2 7.6-2.9 4.6-1.4 4.9-1.4 16.8-1.4 11.6 0 12.3 0 17.2 1.3 2.9 0.8 7.2 2.4 9.7 3.6 2.4 1.2 5.8 3.3 7.6 4.8 1.8 1.4 4.4 4.2 5.8 6.1 1.4 1.8 3.3 4.9 4.2 6.8 0.9 1.9 2.3 5.3 3 7.4 0.7 2.2 1.7 6.2 2.3 8.9 0.8 3.9 1.1 7.9 1.5 18.7 0.2 7.6 0.4 28.1 0.4 45.6 0 17.5-0.2 45.7-0.4 62.6-0.3 17-0.6 34.4-0.8 38.9-0.2 7.9-0.2 8-1.3 7.9-0.8 0-6.5-5.3-19.9-18.6-10.3-10.2-30.6-30.3-45.1-44.7-14.5-14.4-36.7-36.3-49.3-48.8-12.6-12.5-26.2-25.9-30.3-29.8-4.1-3.9-10.7-10.3-14.8-14.1-4.1-3.8-9.6-8.9-12.3-11.3-2.7-2.5-8-7.2-11.8-10.4-3.8-3.2-10-8.3-13.8-11.3-3.8-3-7.8-6.1-8.9-7-1.1-0.8-3.1-2.2-4.4-3.2-1.4-0.9-5.3-3.6-8.7-5.9-3.4-2.3-8.4-5.5-11.1-7.1-2.7-1.6-8.3-4.8-12.5-7-4.2-2.2-10.2-5.1-13.3-6.5-3.2-1.4-8.2-3.5-11.1-4.7-3-1.2-8.1-3.1-11.4-4.2-3.2-1.1-7.2-2.4-8.8-2.9-1.7-0.5-5.7-1.7-8.9-2.7-3.3-1-7.5-2.1-9.4-2.5-1.9-0.4-6.7-1.1-10.6-1.5-4.4-0.5-12.6-0.9-21.7-1-9-0.1-15.3 0-16.5 0.3-1.1 0.3-3.6 0.9-5.7 1.4zm302.5 54.3c-1.7 0.4-4.6 1.7-6.6 2.7-2 1.1-5.5 3.6-7.9 5.7-2.3 2-11.8 11.2-21.1 20.4-9.2 9.2-17.1 17.3-17.4 18-0.6 1.2 0.5 2.4 44.6 46.3 40.8 40.7 45.2 45 45.7 44.2 0.4-0.7 0.4-14.6 0.2-47.1-0.2-32.6-0.5-49.9-1-59.2l-0.8-13c-3.3-6.9-5.1-9.9-6.2-11.1-1.1-1.2-3.2-2.9-4.6-3.9-1.5-0.9-4.3-2.3-6.2-2.9-2.6-0.9-4.7-1.3-8.6-1.4-2.9-0.1-5.6 0-6.2 0.1-0.5 0.1-2.3 0.7-3.9 1.2zm-309.1 177.7c-0.2 8.7-0.1 33.5 0.2 55.2 0.3 21.7 0.8 44.1 1 49.8 0.4 9.9 0.5 10.4 1.8 13.3 0.8 1.7 2.5 4.1 4 5.5 1.4 1.5 3.8 3.2 5.2 3.9 1.4 0.7 3.5 1.6 4.6 2 1 0.4 3.8 1 6.1 1.4 3.1 0.5 5.5 0.5 9.1 0.2 2.7-0.3 6.6-0.9 8.7-1.5 2-0.6 5.7-2 8.1-3.1 3.7-1.8 5.5-3.1 10.6-7.7 3.4-3.1 8.9-8.3 12.3-11.6 3.4-3.2 11.2-11 17.4-17.2 6.2-6.3 12.3-12.5 13.5-13.9l2.1-2.6c-3-3.7-12-12.8-22-22.7-10-9.9-24-23.8-31.2-30.8-7.2-7.1-18.8-18.4-25.9-25.2-7-6.8-15.3-14.7-18.5-17.6-3.1-2.9-5.8-5.3-6-5.3-0.1 0-0.4 2.7-0.6 6.1-0.1 3.3-0.4 13.1-0.5 21.8z"/>
		<path id="Path 5" fill-rule="evenodd" class="s1" d="m370.1 166.9c8 0.1 11.2 0.3 15.5 1.2 3 0.6 6.5 1.4 7.9 1.8 1.3 0.4 4.9 1.4 7.9 2.2 3 0.9 7.3 2.2 9.6 3 2.3 0.7 6.5 2.2 9.4 3.3 2.8 1.1 7.8 3.1 11.1 4.5 3.2 1.5 8.7 4.1 12.3 5.8 3.5 1.8 9 4.7 12.3 6.4 3.3 1.8 9.2 5.3 13.3 7.8 4.1 2.5 10.2 6.5 13.6 8.9 3.4 2.4 8.7 6.3 11.8 8.8 3.2 2.5 10.3 8.7 15.8 13.8 5.5 5.1 17.1 16.1 25.6 24.4 8.5 8.3 38.6 38.1 66.8 66.3 28.2 28.2 58.2 58.4 66.6 67.1 8.4 8.7 18.6 19.3 22.7 23.7 4 4.3 8.3 9.1 9.6 10.6 1.6 1.9 2.6 3.7 3.4 6.1 0.5 1.9 1.5 6.3 2 9.9 0.7 4.5 0.9 9 0.9 15.6 0 6.5-0.3 11.6-1 17-0.5 4.3-1.5 10-2.2 12.7-0.7 2.7-1.9 6.7-2.7 8.9-0.7 2.2-2 5.3-2.8 6.9-0.8 1.6-2.5 4.3-3.7 5.9-1.2 1.6-3.6 4.2-5.3 5.8-1.8 1.6-4.5 3.6-6.2 4.6-1.6 1-4.4 2.3-6.1 3-1.8 0.7-4.9 1.7-6.9 2.2-2.1 0.5-6.4 1.1-9.9 1.3-3.6 0.1-8.4 0-11.6-0.3-3-0.4-8.3-1.3-11.8-2-3.5-0.8-8.5-2.2-11.1-3-2.6-0.9-6.5-2.3-8.6-3.2-2.2-0.9-5.7-2.4-7.9-3.3-2.2-1-5.8-2.7-8.1-3.8-2.4-1.2-6.8-3.6-9.9-5.4-3.1-1.7-9.4-5.7-14.1-8.7-4.6-3-10.8-7.3-13.8-9.6-2.9-2.3-8-6.3-11.3-8.9-3.2-2.7-9.3-7.8-13.3-11.4-4.1-3.6-8.6-7.5-9.9-8.7-1.3-1.2-4.6-4.3-7.4-6.9-2.7-2.7-12.2-11.9-21.2-20.5-8.9-8.7-30.1-29.4-47-46.1-17-16.7-50.3-49.8-74-73.5-23.7-23.7-47.4-47.7-52.7-53.2-5.2-5.6-9.7-10.7-10-11.4-0.3-0.6-0.7-3.5-0.9-6.4-0.2-2.8-0.1-9.8 0.1-15.5 0.2-5.7 0.7-12.5 1.1-15 0.4-2.6 1.3-6.4 2-8.4 0.7-2.1 2.2-5.5 3.3-7.7 1.1-2.1 3-5.2 4.1-6.9 1.2-1.6 3.3-4.1 4.8-5.6 1.4-1.5 4.3-3.9 6.3-5.4 2.1-1.6 5.2-3.5 7.1-4.4 1.8-0.9 5.2-2.1 7.6-2.8 2.4-0.6 4.9-1.3 5.5-1.4 0.7-0.1 5.8-0.2 11.4-0.1zm-10.9 23.5c-1.7 0.6-3.9 1.4-4.9 1.9-0.9 0.5-2.7 1.5-3.9 2.3-1.3 0.9-3.2 2.6-4.4 3.9-1.2 1.4-2.8 3.9-3.6 5.6-0.9 1.8-2 4.5-2.5 6-0.5 1.4-1.1 5-1.4 7.8-0.4 3.8-0.4 6.9 0 11.4 0.3 3.4 0.9 7.4 1.4 8.9 0.5 1.5 1.4 3.6 2.2 4.7 0.7 1 3.5 3.9 6.1 6.3 2.7 2.5 7.1 6.6 9.8 9.2 2.7 2.5 8.7 8.3 13.3 12.8 4.6 4.4 15.2 14.7 23.4 22.9 8.3 8.1 21.2 20.8 28.6 28.1 7.5 7.3 23.2 22.8 35 34.3 11.8 11.5 28 27.3 36 35.2 8 7.9 18.9 18.5 24.2 23.7 5.2 5.1 13.2 12.9 17.7 17.2 4.5 4.4 11.6 11.1 15.8 14.9 4.2 3.8 9.4 8.4 11.6 10.1 2.1 1.8 6.6 5.2 9.8 7.6 3.3 2.4 9.8 7 14.6 10.1 4.7 3.2 10.6 7 13 8.4 2.5 1.5 6.8 4 9.6 5.5 2.9 1.5 8.3 4 12.1 5.7 3.8 1.6 9.4 3.7 12.3 4.7 3 1 7.8 2.2 10.6 2.8 4.4 0.9 6.3 1 12.6 0.8 5.6-0.2 8.1-0.5 10.1-1.2 1.5-0.5 3.9-1.7 5.4-2.7 1.5-0.9 3.5-2.7 4.5-3.9 1-1.2 2.3-3.2 2.9-4.4 0.6-1.2 1.6-3.4 2.1-4.9 0.5-1.5 1.4-5.6 1.9-9.1 0.7-5 0.9-9.1 0.9-18.3 0-9.1-0.1-12.5-0.7-14.7-0.5-1.7-1.5-4.3-2.4-5.9-0.8-1.6-3-4.6-4.7-6.7-1.7-2-7.4-7.9-12.6-13.1-5.1-5.2-15.9-15.8-23.9-23.7-8-7.8-28.9-28.3-46.3-45.5-17.5-17.2-40.9-40.3-52.1-51.3-11.1-11-24.6-24.3-30-29.6-5.4-5.3-12.4-12.1-15.5-15.1-3.2-3-7.9-7.2-10.6-9.4-2.8-2.1-7-5.4-9.4-7.1-2.5-1.7-6.3-4.4-8.6-5.9-2.3-1.5-5.4-3.5-6.9-4.5-1.5-1-5.1-3.1-7.9-4.8-2.9-1.7-8.5-4.9-12.6-7.1-4.1-2.2-11.6-6-16.8-8.5-5.1-2.5-10-4.7-10.8-5-0.8-0.3-3.6-1.4-6.2-2.5-2.5-1-7.8-2.9-11.5-4.2-3.8-1.3-9.4-2.9-12.4-3.6-3.9-0.9-7.2-1.3-12-1.4-3.7-0.1-7.4-0.1-8.2 0.1-0.8 0.1-2.9 0.7-4.7 1.2z"/>
		<text id="NexTech copy" style="transform: matrix(.801,0,0,.801,131.772,789.426)" >
			<tspan x="0" y="0" class="t2">N</tspan><tspan  y="0" class="t2">e</tspan><tspan  y="0" class="t2">x</tspan><tspan  y="0" class="t2">T</tspan><tspan  y="0" class="t2">e</tspan><tspan  y="0" class="t2">c</tspan><tspan  y="0" class="t2">h
</tspan>
		</text>
		<text id="Innovations" style="transform: matrix(1,0,0,1,257,881)" >
			<tspan x="0" y="0" class="t3">I</tspan><tspan  y="0" class="t3">n</tspan><tspan  y="0" class="t3">n</tspan><tspan  y="0" class="t3">o</tspan><tspan  y="0" class="t3">v</tspan><tspan  y="0" class="t3">a</tspan><tspan  y="0" class="t3">t</tspan><tspan  y="0" class="t3">i</tspan><tspan  y="0" class="t3">o</tspan><tspan  y="0" class="t3">n</tspan><tspan  y="0" class="t3">s
</tspan>
		</text>
	</g>
</svg>