<svg version="1.2" xmlns="http://www.w3.org/2000/svg" viewBox="0 0 1024 1024" width="1024" height="1024">
	<title>New Project</title>
	<defs>
		<linearGradient id="g1" x2="1" gradientUnits="userSpaceOnUse" gradientTransform="matrix(-311.587,518.568,-527.202,-316.775,286.769,249.376)">
			<stop offset="0" stop-color="#1473ff"/>
			<stop offset="1" stop-color="#7300af"/>
		</linearGradient>
		<linearGradient id="g2" x2="1" gradientUnits="userSpaceOnUse" gradientTransform="matrix(-240.345,400.001,-984.328,-591.444,331.058,307.87)">
			<stop offset="0" stop-color="#1473ff"/>
			<stop offset="1" stop-color="#7300af"/>
		</linearGradient>
	</defs>
	<style>
		.s0 { fill: url(#g1) } 
		.s1 { fill: url(#g2) } 
	</style>
	<path id="Path 3" fill-rule="evenodd" class="s0" d="m249.1 90.5c2.9-0.1 11.8 0.3 19.9 0.7 8 0.5 21.9 2.2 30.9 3.6 9 1.5 21.2 3.9 27 5.4 5.8 1.5 13.8 3.6 17.7 4.7 3.9 1.1 11.4 3.5 16.8 5.3 5.3 1.8 16.3 5.9 24.3 9.1 8 3.1 16.4 6.5 18.6 7.5 2.2 1 5.8 2.6 7.9 3.5 2.2 1 9.8 4.7 16.9 8.2 7 3.6 15.2 7.7 18.1 9.3 2.9 1.6 9.2 5.1 14 7.9 4.8 2.7 10.3 5.9 12.4 7 2 1.1 3.8 2.4 3.9 2.9 0.1 0.4 0.6 0.8 1.1 0.8 0.5 0 6.3 3.6 13 8.1 6.7 4.4 17.8 12.3 24.6 17.4 6.8 5.1 14.9 11.3 18.1 13.8 3.1 2.5 9.7 7.4 14.6 10.9 4.8 3.5 9.4 6.4 10.2 6.4 0.7 0 5.3-3.6 10.1-8.1 4.9-4.4 17.8-16.9 28.8-27.7 10.9-10.7 24.9-23.9 30.9-29.3 6.1-5.4 15.5-13.1 20.8-17.2 5.4-4.2 12.7-9.5 16.4-11.9 3.6-2.4 8-5.1 9.7-6.2 1.7-1 3.9-2.3 4.9-2.9 0.9-0.6 4.5-2.5 7.9-4.2 3.4-1.7 6.7-3.1 7.3-3.1 0.6 0 1.1-0.3 1.1-0.6 0-0.4 1.7-1.2 3.8-1.9 2.1-0.7 4.6-1.8 5.5-2.4 1-0.7 2.4-1.3 3.1-1.3 0.7 0 2.3-0.5 3.6-1.1 1.2-0.7 6.7-2.3 12.3-3.6 5.6-1.4 14.2-3 19.1-3.6 4.8-0.6 14.2-1.2 20.7-1.2 6.6-0.1 17.8 0.5 24.8 1.2 7.1 0.7 16 2 19.9 2.7 3.9 0.7 11.7 2.6 17.3 4 5.5 1.5 10.5 3 11 3.4 0.5 0.4 2.1 0.9 3.5 1.3 1.5 0.3 6.9 2.4 12 4.6 5.1 2.3 12.5 5.9 16.3 8.1 3.9 2.2 9.9 6.1 13.3 8.6 3.4 2.5 9.5 7.5 13.5 11.1 4.1 3.6 10.1 9.7 13.3 13.6 3.3 3.9 8.5 10.9 11.6 15.5 3.1 4.6 7.7 12.8 10.2 18.2 2.6 5.3 6.3 14.5 8.3 20.3 2 5.8 4.4 13.7 5.4 17.5 1 3.7 2.5 10.7 3.2 15.4 0.8 4.8 1.6 8.9 1.7 9.1 0.2 0.2 1 6.6 1.8 14.2 0.8 7.7 1.8 29.1 2.2 49 0.5 19.5 0.8 98.7 0.8 176 0 77.4-0.3 160.8-0.8 185.3-0.5 24.6-1.3 54.5-1.7 66.4-0.5 11.9-1.3 23.4-1.9 25.6-0.5 2.2-1.7 7.8-2.6 12.4-0.8 4.6-2.2 11-3 14.2-0.8 3.1-1.7 6.3-2 7-0.3 0.8-0.6 1.8-0.7 2.2-0.1 0.5-0.7 2.5-1.3 4.5-0.6 1.9-2.1 6.1-3.3 9.2-1.2 3.2-2.5 6.6-2.9 7.6-0.4 0.9-2.6 5.7-4.9 10.6-2.3 4.8-5.1 10.2-6.1 11.9-1.1 1.7-4.4 6.7-7.2 11.1-2.9 4.3-8.7 11.7-12.9 16.3-4.1 4.7-10.7 11.2-14.6 14.5-3.8 3.3-10.8 8.6-15.4 11.6-4.6 3.1-12 7.4-16.3 9.5-4.4 2.2-13.4 5.8-19.9 8-6.6 2.2-14.8 4.5-18.2 5-3.4 0.5-7.6 1.4-9.3 1.9-1.7 0.6-12.3 1.2-24.7 1.5-12.3 0.2-25.7 0-31-0.5-5.1-0.6-13.6-1.8-19-2.8-5.3-0.9-13.7-2.8-18.6-4-4.8-1.3-10.4-2.7-12.3-3.2-2-0.5-7.6-2.2-12.4-3.9-4.9-1.6-11.5-3.9-14.6-5.1-3.2-1.2-11.5-4.6-18.6-7.7-7-3-16.7-7.4-21.4-9.8-4.8-2.4-14.3-7.6-21.3-11.5-6.9-4-13.4-7.7-14.3-8.2-1-0.6-3-1.8-4.5-2.7-1.4-0.9-4.2-2.7-6.2-4-1.9-1.2-3.6-2.6-3.7-2.9-0.1-0.4-0.6-0.7-1.1-0.7-0.5 0-3.6-1.9-6.9-4.1-3.3-2.3-11.3-8.1-17.9-12.8-6.5-4.8-15.1-11.2-19.1-14.3-3.9-3-11.4-9.1-16.7-13.5-5.3-4.3-14.1-11.8-19.6-16.5-5.5-4.8-11.3-9.3-12.9-10.1-1.8-0.9-3.7-1.2-5.1-0.8-1.2 0.3-4 2.1-6.2 3.8-2.2 1.8-10.5 9.4-18.6 16.9-8 7.5-22.9 21.7-33.1 31.4-10.2 9.8-22.6 21.4-27.4 25.8-4.9 4.3-14.1 11.9-20.4 16.9-6.3 4.9-15.5 11.5-20.3 14.7-4.9 3.1-12.1 7.3-15.9 9.2-3.9 2-10.1 4.8-13.8 6.2-3.6 1.5-8 3-9.7 3.3-1.7 0.4-3.5 1-4 1.4-0.4 0.3-5.2 1.6-10.6 2.9-5.3 1.3-11.9 2.7-14.6 3.2-2.6 0.6-6.8 1.4-9.3 2-2.9 0.7-14.1 1.1-33.6 1.1-24.4 0.1-30.1-0.2-34.9-1.4-3.2-0.8-8.3-1.9-11.5-2.5-3.2-0.6-6.1-1.4-6.6-1.7-0.5-0.4-3.1-1.2-5.8-1.8-2.7-0.7-5.2-1.5-5.7-1.8-0.5-0.4-2.5-1.2-4.4-1.8-2-0.6-7.6-2.9-12.4-5.1-4.9-2.2-12.5-6.2-16.8-8.9-4.4-2.7-12-8.1-16.8-12-4.9-3.9-11.8-10.1-15.4-13.7-3.5-3.7-9.3-10.5-12.8-15.1-3.5-4.6-8.6-12.2-11.4-16.8-2.7-4.6-6.1-11-7.5-14.2-1.5-3.1-3.7-8.4-5-11.7-1.3-3.3-2.3-6.6-2.3-7.3 0-0.7-0.4-1.5-0.9-1.8-0.5-0.2-1.4-2.5-1.9-5-0.6-2.6-1.3-5.1-1.7-5.6-0.4-0.5-1.7-5.9-3-12.1-1.6-8.1-2.5-16.7-3.2-30.1-0.7-12.5-1.2-98.4-1.9-492l2.4-11c1.3-6.1 3-14.3 3.9-18.2 0.9-3.8 2.1-8.8 2.7-11 0.5-2.2 2.8-9.4 5-15.9 2.3-6.6 6.4-16.7 9.2-22.6 2.9-5.8 7.1-13.6 9.4-17.2 2.3-3.7 7.5-10.6 11.5-15.5 3.9-4.9 9.7-11.3 12.8-14.3 3.1-2.9 8.2-7.5 11.4-10.1 3.1-2.5 8.3-6.3 11.5-8.3 3.1-2.1 9.5-5.7 14.1-8.1 4.7-2.4 11-5.4 14.2-6.7 3.1-1.3 8.1-3.2 11-4.2 3-1 9.3-2.8 14.2-4 4.9-1.2 12.4-2.8 16.8-3.6 4.4-0.8 11.7-1.8 16.4-2.2 4.6-0.3 10.8-0.7 13.7-0.7zm-37.6 47.6c-3.7 0.8-10.2 3-14.6 4.7-4.4 1.7-11.4 5-15.5 7.3-4.1 2.4-9.7 5.8-12.4 7.6-2.6 1.8-7.4 5.6-10.6 8.4-3.2 2.9-8.4 8.1-11.5 11.6-3.2 3.5-8.1 9.9-10.9 14.1-2.8 4.3-6.9 11.3-9 15.7-2.1 4.4-4.8 10.8-6.1 14.2-1.3 3.4-3.3 9.9-4.5 14.6-1.7 6.5-2.3 12.5-3 27.4-0.6 10.4-1.4 31.3-1.8 46.4-0.5 15.1-1.6 66.4-2.4 114.1-0.7 48.2-1.4 135.6-1.4 196.8-0.1 106.8-0.1 110.6 1.8 125.1 1 8.3 2.7 19.7 3.7 25.3 1.1 5.5 3.3 14.9 5 20.7 1.7 5.9 4.1 13 5.3 16 1.2 2.9 3.1 7.1 4.1 9.2 1.1 2.2 3.7 7 5.9 10.7 2.1 3.6 6 9.4 8.5 12.8 2.5 3.4 7.4 8.8 10.7 11.9 3.4 3.2 8.9 7.6 12.3 9.9 3.4 2.3 9.7 5.9 14.1 8.1 4.4 2.2 10.3 4.9 13.3 5.9 2.9 1.1 9.1 2.9 13.7 4.1 4.6 1.2 13.4 2.7 19.4 3.4 6.1 0.8 17.3 1.3 24.8 1.3 7.5 0.1 18.6-0.5 24.5-1.3 6-0.7 15.4-2.5 20.8-4 5.5-1.5 13.8-4.2 18.4-6.1 4.6-1.9 11.2-4.9 14.6-6.7 3.4-1.8 10.1-5.9 15-9.1 4.9-3.2 12-8.2 15.9-11.2 3.9-2.9 10.3-8.1 14.2-11.5 3.9-3.3 10.2-9.1 14.1-12.8 3.9-3.7 15.3-14.5 25.2-24 10-9.6 24.8-23.5 33-31l14.8-13.6c-23-23-31.4-30.9-33.6-32.3-2.2-1.5-4.8-2.6-5.8-2.6-0.9 0-3.9 1.3-6.6 2.9-3 1.7-13.4 11.2-27 24.5-12.2 11.9-28.4 27.4-36.1 34.5-7.7 7-18.1 15.9-23 19.8-4.9 3.8-11.4 8.5-14.3 10.4-2.9 1.9-8.3 4.9-11.9 6.7-3.7 1.7-8.8 3.8-11.5 4.7-2.7 0.9-9.1 2.7-14.2 4-7.3 1.8-12.3 2.4-23.4 2.8-11.4 0.4-15.6 0.2-21.7-1.1-4.1-0.8-10.7-2.7-14.6-4.1-3.9-1.4-10.4-4.6-14.6-7.1-4.4-2.7-10.1-7.4-14-11.3-3.6-3.7-8.2-9.3-10.3-12.4-2-3.2-4.7-7.8-6-10.2-1.2-2.4-3.4-8-4.9-12.4-1.4-4.4-2.9-9.9-3.2-12.4-0.3-2.4-0.9-18.3-1.4-35.3-0.5-17.1-1.2-77.2-1.7-133.6-0.5-56.4-0.6-119-0.2-139 0.5-32.6 0.8-36.7 2.1-38.1 1.4-1.5 1.8-1.3 7.5 3.8 3.3 2.9 11.2 10.2 17.5 16.2 6.4 6.1 26.3 25.6 44.3 43.4 18 17.8 46.2 45.7 62.8 62 16.5 16.3 39.6 39 51.3 50.4 11.7 11.4 41.7 40.7 66.7 65 25.1 24.4 55.1 53.4 66.8 64.6 11.7 11.2 23.6 22.5 26.5 25.2 2.9 2.6 8.7 8 12.9 12 4.1 3.9 9.1 8.5 11.1 10.1 2 1.7 8.9 7.7 15.5 13.3 6.5 5.6 17.3 14.5 24 19.7 6.7 5.2 18.2 13.5 25.6 18.6 7.5 5 19.7 12.8 27.2 17.4 7.6 4.5 21.3 12.1 30.6 16.7 9.2 4.7 21.5 10.5 27.4 12.8 5.8 2.4 15.4 5.9 21.2 7.8 5.8 1.9 13.6 4.3 17.2 5.2 3.7 0.9 11.6 2.7 17.5 3.9 6 1.2 15.5 2.6 21.2 3.1 5.8 0.4 14.8 0.8 20.2 0.8 5.3 0 13.5-0.4 18.1-0.8 4.6-0.5 12-1.7 16.4-2.7 4.3-1 10.7-2.9 14.1-4.1 3.4-1.2 7.9-2.9 10-3.9 2-0.9 3.9-1.7 4.2-1.7 0.2 0 3.3-1.7 6.8-3.7 3.5-2 9.4-5.9 13.1-8.7 3.6-2.8 9.2-7.8 12.4-11.2 3.2-3.3 8-9 10.7-12.7 2.7-3.6 6.5-9.6 8.5-13.2 2-3.7 4.7-9.3 6-12.4 1.3-3.2 3-8.4 3.9-11.5 0.9-3.2 2.6-9.3 3.9-13.7 1.3-4.4 2.9-12.6 3.6-18.2 0.8-5.5 1.8-16.7 2.4-24.7 0.6-9.6 1-71.2 1.2-180.9 0.2-91.4-0.1-188.5-0.5-215.8-0.4-27.2-1.1-56.1-1.7-64.1-0.5-8-1.4-18.4-1.9-23-0.5-4.6-1.7-12-2.7-16.4-0.9-4.3-2.7-10.7-3.9-14.1-1.3-3.4-3.9-9.8-6-14.2-2.1-4.3-5.9-11.3-8.6-15.4-2.7-4.2-7.6-10.5-11-14.1-3.4-3.6-9.8-9.2-14.1-12.5-4.4-3.2-11-7.6-14.6-9.7-3.7-2-8.4-4.5-10.6-5.5-2.2-0.9-7-2.9-10.6-4.2-3.7-1.4-10.1-3.3-14.2-4.3-4.1-1-11.1-2.5-15.5-3.4-6.2-1.2-12.2-1.6-27-1.5-13.8 0-21.4 0.4-27.8 1.5-4.9 0.8-11.8 2.3-15.5 3.3-3.6 1-10 3-14.1 4.5-4.2 1.4-10.7 4.2-14.6 6.2-3.9 1.9-10.5 5.6-14.5 8.1-4.7 2.9-12.4 9.2-20.8 17.1-7.4 6.8-26.4 25.6-42.3 41.5-15.9 16-29 29.8-29 30.7 0 0.8 7.7 9.4 17.2 19l17.1 17.4c52.6-52.2 71.4-70.3 75.8-73.9 4.4-3.6 10.4-8.2 13.3-10.2 2.9-2 7.7-4.8 10.6-6.3 2.9-1.5 9.1-3.8 13.7-5.2 8.2-2.5 8.8-2.5 30.1-2.5 20.9 0 22 0.1 30.9 2.5 5.1 1.3 12.9 4.2 17.3 6.3 4.3 2.1 10.5 6 13.7 8.6 3.1 2.6 7.8 7.5 10.3 10.9 2.6 3.4 6 9 7.6 12.4 1.7 3.4 4.1 9.3 5.4 13.2 1.3 3.9 3.1 11.1 4.1 15.9 1.5 7 2.1 14.2 2.7 33.7 0.4 13.6 0.8 50.4 0.8 81.8 0 31.3-0.4 81.9-0.8 112.3-0.5 30.4-1.1 61.7-1.4 69.6-0.4 14.2-0.5 14.4-2.4 14.4-1.4 0-11.6-9.6-35.6-33.4-18.5-18.4-54.9-54.5-80.9-80.2-26.1-25.8-65.9-65.2-88.5-87.6-22.6-22.4-47.1-46.5-54.4-53.5-7.3-7.1-19.2-18.4-26.5-25.2-7.3-6.9-17.3-16-22.1-20.4-4.9-4.4-14.4-12.8-21.2-18.6-6.9-5.8-18-15-24.8-20.3-6.8-5.4-14-11-15.9-12.5-2-1.5-5.6-4.1-8-5.8-2.4-1.7-9.4-6.4-15.5-10.6-6.1-4.1-15-9.9-19.9-12.8-4.8-2.9-15-8.5-22.5-12.4-7.6-4-18.3-9.3-23.9-11.8-5.6-2.5-14.6-6.3-19.9-8.4-5.4-2.1-14.5-5.5-20.3-7.5-5.9-2-13-4.4-16-5.3-2.9-0.9-10-3-15.9-4.8-5.8-1.8-13.4-3.8-16.8-4.5-3.4-0.7-12-1.9-19-2.7-8-0.9-22.6-1.6-38.9-1.8-16.3-0.2-27.4 0.1-29.6 0.6-2 0.5-6.6 1.7-10.2 2.6zm542.6 97.2c-2.9 0.9-8.2 3.2-11.8 5.1-3.6 1.8-9.9 6.4-14.2 10.1-4.2 3.7-21.2 20.2-37.8 36.7-16.6 16.5-30.6 31-31.3 32.2-1 2.2 1 4.3 80 83.1 73.2 73.1 81.2 80.8 82.1 79.2 0.6-1.2 0.8-26.1 0.4-84.5-0.4-58.4-0.9-89.5-1.9-106.1l-1.4-23.4c-5.9-12.4-9.2-17.7-11.1-19.9-1.9-2.1-5.7-5.3-8.4-7-2.6-1.7-7.6-4-11-5.2-4.7-1.6-8.5-2.3-15.5-2.5-5.1-0.1-10.1-0.1-11 0.2-1 0.2-4.2 1.2-7.1 2zm-554.6 318.9c-0.3 15.6-0.1 60.2 0.5 99.1 0.5 38.9 1.3 79.1 1.7 89.3 0.7 17.8 0.8 18.8 3.2 23.9 1.4 3 4.6 7.3 7.2 9.9 2.6 2.6 6.8 5.7 9.3 7 2.6 1.3 6.3 2.9 8.2 3.6 2 0.7 6.9 1.8 11.1 2.5 5.4 0.8 9.9 0.9 16.3 0.3 4.9-0.4 11.9-1.6 15.5-2.6 3.7-1 10.2-3.5 14.6-5.6 6.6-3.2 9.8-5.5 19-13.9 6.1-5.5 16-14.8 22.1-20.7 6.1-5.8 20.2-19.7 31.3-30.9 11.1-11.2 21.9-22.5 24.1-25l3.9-4.7c-5.4-6.5-21.6-22.9-39.5-40.6-17.9-17.8-43.1-42.7-56-55.3-12.9-12.7-33.8-33-46.5-45.2-12.6-12.2-27.5-26.4-33.1-31.6-5.6-5.2-10.5-9.5-10.8-9.5-0.3 0-0.8 4.9-1.1 10.9-0.3 5.9-0.7 23.6-1 39.1z"/>
	<path id="Path 5" fill-rule="evenodd" class="s1" d="m257.5 185.3c14.4 0.2 20.1 0.7 27.8 2.2 5.4 1.1 11.7 2.5 14.2 3.2 2.4 0.7 8.8 2.5 14.1 4.1 5.4 1.5 13.1 3.9 17.3 5.2 4.1 1.4 11.7 4.1 16.8 6 5.1 1.9 14 5.6 19.9 8.1 5.8 2.6 15.8 7.3 22.1 10.5 6.3 3.1 16.3 8.3 22.1 11.4 5.8 3.2 16.6 9.5 23.9 14 7.3 4.5 18.2 11.7 24.3 15.9 6.1 4.3 15.7 11.4 21.3 15.8 5.7 4.5 18.4 15.6 28.3 24.8 9.9 9.2 30.6 28.9 45.9 43.7 15.4 14.9 69.3 68.5 119.9 119.1 50.7 50.6 104.4 104.7 119.5 120.3 15.1 15.6 33.4 34.7 40.6 42.5 7.3 7.8 15.1 16.3 17.3 19 2.9 3.4 4.7 6.6 6.1 11 1 3.4 2.6 11.4 3.6 17.7 1.2 8.2 1.7 16.3 1.7 28.1 0 11.5-0.5 20.8-1.8 30.5-1 7.7-2.8 17.9-4 22.8-1.3 4.8-3.4 12-4.8 15.9-1.3 3.9-3.6 9.5-5.1 12.4-1.5 2.9-4.4 7.7-6.6 10.6-2.1 2.9-6.5 7.6-9.6 10.4-3.1 2.8-8.1 6.5-11 8.2-2.9 1.7-7.9 4.2-11.1 5.4-3.1 1.3-8.7 3.1-12.3 4-3.8 0.9-11.5 1.9-17.7 2.2-6.5 0.3-15.1 0.1-20.8-0.5-5.4-0.6-14.9-2.2-21.2-3.6-6.4-1.4-15.3-3.8-19.9-5.4-4.7-1.5-11.6-4.1-15.5-5.7-3.9-1.6-10.3-4.2-14.2-5.9-3.9-1.7-10.4-4.8-14.6-6.9-4.1-2-12.1-6.3-17.6-9.5-5.6-3.2-17-10.2-25.3-15.7-8.2-5.4-19.4-13.2-24.7-17.2-5.4-4.1-14.5-11.3-20.4-16-5.8-4.7-16.6-13.9-23.9-20.4-7.3-6.5-15.3-13.6-17.7-15.6-2.4-2.1-8.3-7.7-13.2-12.5-4.9-4.7-22-21.3-38-36.8-16.1-15.5-54.1-52.7-84.5-82.7-30.4-29.9-90.1-89.2-132.7-131.8-42.5-42.6-85.1-85.5-94.5-95.5-9.4-10-17.5-19.1-18-20.3-0.5-1.3-1.2-6.4-1.6-11.5-0.3-5.2-0.3-17.7 0.2-27.9 0.4-10.2 1.3-22.4 2-27 0.7-4.6 2.3-11.4 3.6-15 1.3-3.7 3.9-9.8 5.9-13.7 1.9-3.9 5.2-9.5 7.3-12.4 2.1-2.9 6-7.5 8.6-10.1 2.6-2.7 7.7-7.1 11.4-9.8 3.6-2.7 9.3-6.2 12.6-7.8 3.3-1.5 9.4-3.8 13.7-5 4.2-1.2 8.7-2.3 9.9-2.6 1.2-0.2 10.4-0.3 20.4-0.2zm-19.5 42.3c-3.1 1-7.1 2.5-8.8 3.4-1.7 0.8-4.9 2.7-7.1 4.2-2.2 1.4-5.7 4.5-7.8 6.9-2.1 2.4-5.1 6.9-6.6 10.1-1.5 3.2-3.4 7.9-4.3 10.6-0.9 2.7-2.1 9-2.6 14.2-0.7 6.7-0.7 12.3 0 20.3 0.5 6.1 1.6 13.3 2.5 16 0.8 2.6 2.6 6.4 3.9 8.4 1.3 1.9 6.3 7 11.1 11.4 4.8 4.4 12.6 11.7 17.5 16.4 4.9 4.6 15.6 14.9 23.9 22.9 8.3 8.1 27.2 26.6 42 41.2 14.8 14.6 37.9 37.3 51.3 50.5 13.4 13.1 41.6 40.7 62.8 61.4 21.1 20.6 50.2 49.1 64.5 63.2 14.4 14.2 33.9 33.3 43.4 42.5 9.5 9.3 23.8 23.2 31.8 31 8.1 7.8 20.8 19.8 28.3 26.6 7.6 6.9 16.9 15.1 20.8 18.2 3.9 3.1 11.9 9.2 17.7 13.6 5.8 4.3 17.6 12.5 26.1 18.2 8.5 5.6 19.1 12.4 23.4 15.1 4.4 2.6 12.2 7 17.3 9.7 5.1 2.7 14.8 7.3 21.6 10.2 6.9 3 16.8 6.8 22.2 8.5 5.3 1.7 13.9 4 19 5 7.8 1.6 11.3 1.9 22.5 1.5 10-0.3 14.5-0.9 18.2-2.2 2.6-0.9 7-3.1 9.7-4.8 2.7-1.7 6.3-4.8 8.1-7 1.7-2.1 4.1-5.7 5.2-7.9 1.1-2.2 2.7-6.1 3.7-8.8 0.9-2.7 2.4-10.1 3.4-16.4 1.3-8.8 1.7-16.3 1.7-32.7 0-16.4-0.3-22.4-1.4-26.5-0.8-2.9-2.7-7.7-4.2-10.6-1.5-2.8-5.4-8.2-8.5-11.9-3.1-3.7-13.2-14.3-22.5-23.5-9.3-9.3-28.7-28.4-43-42.5-14.4-14.1-51.8-50.9-83.1-81.8-31.4-30.9-73.4-72.3-93.3-92-20-19.7-44.3-43.6-54-53.1-9.7-9.5-22.3-21.6-27.9-27-5.6-5.4-14.1-13-19-16.9-4.8-3.9-12.4-9.6-16.8-12.8-4.4-3.1-11.3-7.9-15.5-10.6-4.1-2.7-9.7-6.3-12.3-8-2.7-1.8-9.1-5.7-14.2-8.7-5.1-3-15.2-8.7-22.5-12.6-7.3-4-20.9-10.8-30.1-15.3-9.3-4.4-18-8.5-19.5-9-1.4-0.5-6.4-2.5-11-4.4-4.6-1.9-14-5.4-20.8-7.7-6.8-2.2-16.8-5.1-22.1-6.3-7.1-1.7-13-2.3-21.7-2.6-6.6-0.1-13.1-0.1-14.6 0.1-1.4 0.3-5.2 1.3-8.4 2.3z"/>
</svg>